<svg id="Layer_1" data-name="Layer 1" xmlns="http://www.w3.org/2000/svg" viewBox="0 0 146.647 478.0977"><defs><style>.cls-1{fill:#435f6d;}.cls-2{fill:#edb590;}.cls-3{fill:#3d5665;}.cls-4{fill:#445f6e;}.cls-5{fill:#c4c3c0;}.cls-6{fill:#5d7c8d;}.cls-7{fill:#ecb249;}.cls-8{fill:#48626f;}.cls-9{fill:#3f3a35;}.cls-10{fill:#68523c;}.cls-11{fill:#f1eff0;}.cls-12{fill:#35291f;}.cls-13{fill:#3b332c;}.cls-14{fill:#e9e6e5;}.cls-15{fill:#ddd6d4;}.cls-16{fill:#e19d4c;}.cls-17{fill:#e09f78;}.cls-18{fill:#e0d174;}.cls-19{fill:#b6604e;}.cls-20{fill:#624535;}.cls-21{fill:#a2968e;}.cls-22{fill:#f9f26d;}.cls-23{fill:#8360ae;}</style></defs><title>iris-worker-female</title><g id="J4qIMB.tif"><path class="cls-1" d="M122.8891,269.4524l.24,1.3145c-.7377.41-1.8307.1655-1.7268,1.7524.33,5.049.41,10.1146.5862,15.1737l-.0333.0389c-1.033.2176-1.5954.5649-.3854,1.4l.3886,11.74-1.1006.8675,1.17,1.1027q.2818,1.64.5638,3.28c-.7742.836.3049,2.9412-1.9107,2.79a.4644.4644,0,0,0-.41-.3338.57.57,0,0,0-.191-.4906l-.6043-.7682c-4.4923-6.6452-10.7634-8.6779-17.7753-5.7615l-5.5172,1.8818c-1.9692-2.1435-3.707-4.5038-6.4869-5.7877-4.661-2.1528-8.9008-4.7341-9.0776-10.73-.0064-.2182-.3664-.426-.5616-.6387a5.1318,5.1318,0,0,0-.6194,1.6433,76.1534,76.1534,0,0,0,1.7364,17.9679c.844,3.5187.0412,5.5907-4.1432,4.7487-1.6644-.3348-4.5731-1.2143-4.8046-.763-.9425,1.8373,1.9178,1.8123,2.3351,3.2242a8.2856,8.2856,0,0,1,.2464,2.2592c.3273,42.2384.7716,84.4982-8.7354,126.0285-.6442,2.8141.2475,8.5793-5.7558,7.4492-5.8435-1.1-10.7352-4.0639-13.7109-9.5328a8.6085,8.6085,0,0,0,3.287-7.0729c-.0074-13.0444.16-26.0918-.0646-39.1324-.21-12.238-.7342-24.4734-1.295-36.7019-1.01-22.03-2.1466-44.0539-3.2506-66.0793-.0577-1.15-.3049-2.29-.4638-3.4345L41.8375,288.56c-2.5761.8226-3.4269-.8551-3.6375-2.8224a43.8548,43.8548,0,0,1,1.2632-16.9881,25.8379,25.8379,0,0,0,2.3994,1.3078c2.2662.9531,3.8586-.56,5.51-1.6725a3.16,3.16,0,0,0,.9986-1.3906c-1.3824-1.3993-2.1176.4411-3.2014.6985-1.2274.2914-1.1341-.6746-1.1521-1.4007-.0457-1.84-.0391-3.6808-.0535-5.5213,2.7972-4.7781,3.1239-10.7375,7.14-14.9323,3.3665,3.5933,3.2856-.8106,4.5982-1.9822l.6088-1.0179a.3909.3909,0,0,1-.1228-.3706c2.825-3.3052,7.0094-3.0015,10.68-3.7793,11.3137-2.3974,11.9538-2.4409,8.9821-13.3931-1.8854-6.9488-.35-15.0684-6.3032-20.7884q-.0081-1.6456-.0166-3.291-1.309-9.1755-2.6178-18.3511c6.79-.662,13.5713-1.423,20.3723-1.9233,1.9415-.1428,2.8517-.6611,2.673-2.6337l5.3985-17.5318q2.5275-4.9818,5.0549-9.9635c2.2693-.442,4.237.5393,6.2438,1.3223-.7222,5.1123-4.63,9.4432-3.6753,14.9672-1.827,2.419-1.895,5.1374-1.3553,7.9594l-.2247,3.1964c-.3246.9323.1942,1.1815.9821,1.2128l.1009.068,1.173.6339.1032.044c2.4681,1.9292,4.8484,3.9337,6.1226,6.9216,2.04,4.7843.4378,9.8722,1.2387,14.76-9.2619,6.2208-11.7758,15.1124-10.1536,25.6418-.0553.044-.1645.1058-.1568.129a2.5238,2.5238,0,0,0,.17.3512l.1247,2.0152c-1.104,4.5347-.2213,8.9957.6974,13.4023.6616,3.1734,2.4981,4.4122,5.52,2.233l2.8413,1.6315,6.8028,11.4915c-1.5888,1.2255-.0351,2.3045.1119,3.47.1783,1.4148,1.7841,3.1856.3372,4.1405-1.3766.9085-2.7394-.75-3.7969-1.82-2.4483-2.4773-4.8372-5.013-7.2736-7.5022a12.4114,12.4114,0,0,0-1.4213-1.0946c-.0269.6606-.06,1.3209-.08,1.9817-.114,3.8792,3.5714,4.5228,5.75,5.97,3.1176,2.0706,7.0253,10.7079,10.4626.0747q.2243.1629.4592.3017.4064,1.36.8117,2.72C122.041,267.9517,121.7928,268.8585,122.8891,269.4524ZM56.2772,257.53c.1026.4393-.0272-.1721-.2165-.7646-.01-.03-.6614.0031-.7964.1765-1.9218,2.4667-3.8619,4.9234-5.6549,7.4824-.39.5565.482,1.1278.8324.6119C52.11,262.58,56.5032,262.6535,56.2772,257.53Z" transform="translate(-3.2916 -3.3488)"/><path class="cls-2" d="M59.7282,149.4316c6.2723-1.5765,8.7867-5.8462,9.1948-12.0574.3481-5.2992-2.4939-7.116-7.0365-7.6287q-5.4138-4.449-10.8267-8.8992c-.2269-.9072-.19-2.0252-.7213-2.689-7.004-8.7546-9.4749-18.9065-10.5168-29.8866C39.2892,82.6582,41,76.7,37.95,71.3626q.1151-1.6185.23-3.2371c2.1011-.741.8822-2.5535,1.2443-3.8558,2.7509-1.0724,4.8567-3.76,8.2256-3.2852l-2.69,3.0618a26.234,26.234,0,0,0,4.0086-.7107A24.4585,24.4585,0,0,1,63.74,63.1451c1.184.3289,3.02,3.05,3.87.123.7038-2.4211-.3781-5.03-3.34-5.3681a89.9509,89.9509,0,0,0-9.7746-.12c-.0471-1.2536.8782-1.6261,1.8061-2.008,8.7958-3.62,18.0105-4.2679,27.2719-3.0957,4.6483.5884,9.6823.7558,13.5138,4.273a38.2652,38.2652,0,0,0-6.6958.9409c-1.8477.5837-2.2473,2.5458-2.0854,4.3724.11,1.2417,1.1319,1.1073,2.0076.9249A27.7153,27.7153,0,0,1,109.56,65.724c.5558.5515,1.0948,1.1234,1.6986,1.6159.049.04.5422-.4647.8289-.7163l-1.2557-1.1095-.0318-.6876c2.3186-4,4.3535,1.06,6.5736.2059a11.9749,11.9749,0,0,0-1.1934,3.2419c-.7849,13.2669,1.804,26.6486-1.3712,39.8379l.0115-.0136c-.0817.0641-.2422.1512-.2314.1883a2.8991,2.8991,0,0,0,.2257.4754q.1314.13.2707.2525-.3852.94-.771,1.879l-.9767-.4979.3721,1.2147c-4.0947,9.43-11.4306,15.5407-20.4238,19.9592-.9591.4712-1.8973.985-2.8447,1.4789a30.2073,30.2073,0,0,1-17.1631.6851c-.53-.1366-1.1823.2-1.7778.3162a4.506,4.506,0,0,0,.3405.8419c1.5237,2.3153,15.6207,6.8836,18.3495,5.9594-.2914,6.6892,5.4566,7.4556,9.6035,9.7925-3.767.1316-4.36,3.4776-5.7671,5.8688-3.5574,6.0461-8.9527,10.1079-15.5642,10.99C73.4774,168.1672,60.81,154.8427,59.7282,149.4316ZM47.92,85.8686c1.5366,2.3638,3.9007,3.0252,6.517,3.1678l5.3473.4723c5.919-.3065,11.5611-.8463,7.8338-9.29.6666-1.9841-1.0552-2.77-1.9838-3.954l-.1211-.1281c-1.2541-5.5383-5.3728-6.8722-10.1955-6.4182-5.9158.5569-8.7835,4.2913-9.1,10.1095C46.2255,81.9993,44.7972,84.5751,47.92,85.8686ZM100.3049,88.04c3.0586,1.8987,5.3188.0255,7.6282-1.6149l.0358-.2609.2626.0046c2.4713-2.17,2.0414-4.8426,1.31-7.5672-1.1348-6.1136-4.8206-9.3388-11.0235-8.94-5.0863.3273-8.5871,2.9853-9.4406,8.3606l-.1768,1.2454c-.6118,2.8753-4.2155,6.07-.4655,8.5455a10.7288,10.7288,0,0,0,10.0015.7011Zm-20.7425,34.549c6.776.0205,15.8686-7.9654,16.4686-14.3978.0858-.92-.0947-1.0168-.9839-1.0357-9.8915-.2106-19.8059-1.1912-29.607,1.0891-1.0093.2348-1.8967.3394-1.5261,1.849C65.4149,116.2074,73.3183,122.57,79.5624,122.5893Zm-.434-27.6165c-2.0195.143-4.7464-.3945-4.54,2.1124.1933,2.3514,2.947,3.0655,5.148,3.05,2.1761-.0148,5.3072-.8178,4.9943-3.0139C84.404,94.8312,81.09,95.1912,79.1284,94.9728Z" transform="translate(-3.2916 -3.3488)"/><path class="cls-3" d="M46.6064,439.3088c2.9757,5.4688,7.8674,8.4326,13.7109,9.5327,6.0033,1.13,5.1116-4.6351,5.7558-7.4492,9.507-41.53,9.0627-83.79,8.7354-126.0285a8.2856,8.2856,0,0,0-.2464-2.2592c-.4173-1.4119-3.2776-1.3869-2.3351-3.2242.2315-.4513,3.14.4282,4.8046.763,4.1844.842,4.9872-1.23,4.1432-4.7487a76.1534,76.1534,0,0,1-1.7364-17.9679,5.1318,5.1318,0,0,1,.6194-1.6433c.1952.2127.5552.4205.5616.6387.1768,5.9954,4.4166,8.5767,9.0776,10.73,2.78,1.2839,4.5177,3.6442,6.4849,5.7845-6.4156,8.047-7.2178,15.8361-2.3759,23.0454a17.04,17.04,0,0,0,9.9914,7.4944c.4054,11.03.7275,22.0634,1.2337,33.0885,1.0245,22.3136,2.1488,44.6225,3.2318,66.9332-6.37,1.5176-10.3022,6.0538-13.7944,11.1358-2.91.5911-.6937,4.4676-3.3473,5.2231l.086-14.405c.917-1.1237,1.07-2.2265-.0908-3.293q-.2985-8.51-.5969-17.0209c.8278-.5455.6688-.9814-.1494-1.344-1.2054-19.1746-2.2322-38.3627-3.6778-57.5192-.9936-13.1667-2.5428-26.2922-3.9233-39.4279-.137-1.3031-.14-3.5443-1.6562-3.4572-1.7085.0982-1.1126,2.3025-1.1419,3.5779-1.0076,43.79-2.9163,87.57-1.2892,131.3924.1316,3.5432,4.0674,5.6468,2.6324,9.38-2.2679-7.5406-8.4748-5.8618-13.8986-5.8792-8.0193-.0257-15.4507-1.2053-21.1993-7.7719-2.4674-2.8184-5.5944-5.3967-9.9809-4.6711a5.7221,5.7221,0,0,1,3.6256-3.4456Z" transform="translate(-3.2916 -3.3488)"/><path class="cls-4" d="M108.263,433.9978c-1.0831-22.3108-2.2074-44.62-3.2319-66.9333-.5062-11.0251-.8283-22.0587-1.234-33.0872,6.7382.7334,12.0517-1.5623,15.703-7.39l-.0071-.065.5406-.7276q.1848-.4695.3682-.94a.3781.3781,0,0,0,.3345-.3159l.6924-1.3307.5192-1.694,1.5989.3q.2177,7.24.4352,14.4807c-.8621.9761-.9733,1.8835.2442,2.6694l.3891,8.4846c-.8043,1.4036-1.2093,2.7719.3514,3.9661l.3274,6.5159a18.2563,18.2563,0,0,0-.5911,3.4279c.1682,10.5672.1493,21.1466.6922,31.6964.7254,14.0971,1.8785,28.1728,2.934,42.2512a2.7811,2.7811,0,0,1-.7581,2.6279c-1.1556,1.04-2.2688.3231-3.36-.0812A58.9434,58.9434,0,0,0,108.263,433.9978Z" transform="translate(-3.2916 -3.3488)"/><path class="cls-5" d="M26.2239,60.7378q-.2175-1.3083-.435-2.6164,1.2495-.7682,2.4992-1.537A17.9881,17.9881,0,0,0,31.45,54.373c14.5628-15.6821,30.8505-27.7,53.8446-25.6988l2.5247.2692,14.5235,4.8293a15.3568,15.3568,0,0,1,2.1766,1.2216q12.5934,9.9716,25.1474,19.993a.4142.4142,0,0,1-.0388.3282q.0549.62.11,1.2394a22.9625,22.9625,0,0,1-10.6346,6.6783A25.3346,25.3346,0,0,1,106.97,58.8343c-12.4129-7.92-25.9055-9.7767-40.2979-8.053-12.4118,1.4865-21.7584,10.6613-33.81,12.8734q-.6647.0015-1.3292.0037l-1.6836-.582C29.2025,61.4266,27.5192,61.383,26.2239,60.7378Z" transform="translate(-3.2916 -3.3488)"/><path class="cls-1" d="M129.6672,54.9873Q117.0992,44.9837,104.52,34.9943a15.3154,15.3154,0,0,0-2.1766-1.2212c-1.1393-3.2719-10.8931-6.5157-14.5235-4.83q-1.2624-.1346-2.5246-.2689c-4.148-3.423-9-2.8989-13.7325-2.1643-13.85,2.15-25.1035,9.1091-34.8623,18.941-2.5229,2.5417-4.3294,6.1225-8.335,6.947a27.2365,27.2365,0,0,1,.3319-3.4921c.874-3.94,1.8431-7.8579,2.776-11.7844C38.1791,28.07,45.3173,19.6132,55.85,14.5534,65.4841,9.9256,75.5184,8.45,86.0132,8.9825l1.2656.0378,1.3734.5548,1.2641.1022,1.3492.5586,1.2715.1169a6.6809,6.6809,0,0,0,5.3065,1.7453c10.5885,5.4628,19.8407,12.4522,26.15,22.8235.3528.58.9151.9992,1.5207.1724,2.6759,6.365,5.0565,12.7906,4.0839,19.905Z" transform="translate(-3.2916 -3.3488)"/><path class="cls-2" d="M116.9657,258.7932q-3.4014-5.7457-6.8024-11.4916,3.2556-3.3374,6.51-6.6746c1.6631.0366,2.2351-.8548,2.04-2.3985l-.0113-.2649c1.4257.0571,2.1678-.5448,1.9745-2.0484l-.0321.0081c6.0111-2.967,8.462-9.264,12.8182-13.7854,2.9021-3.0121,4.5982-6.5351,1.1011-10.4074l-6.0691-11.7672c.9225-5.1994,2.7449-9.8406,7.7552-12.5048a86.6013,86.6013,0,0,1,13.1022,24.2384c2.3853,7.1246-2.9986,12.2965-7.3883,17.0456a138.6551,138.6551,0,0,1-20.5074,18.0859,6.8616,6.8616,0,0,0-1.2423,1.7234c.4314.3.9941.9507,1.274.846,2.7179-1.0172,3.8854,2.3883,6.645,2.1271,1.7264-.1633,1.1515,2.0684.26,3.3067q-3.4231,4.7546-6.8775,9.4855-.2356-.1411-.46-.3026Q119.01,261.4044,116.9657,258.7932Z" transform="translate(-3.2916 -3.3488)"/><path class="cls-6" d="M46.6064,439.3088l-6.7455-2.8372c1.9418-16.9136,2.3631-33.9016,2.7677-50.9053.7289-30.6386,1.155-61.27-.0736-91.9033a49.893,49.893,0,0,0-.7174-5.1035l2.9818-1.6718c.1589,1.1446.4061,2.2848.4638,3.4345,1.104,22.0254,2.24,44.0495,3.2506,66.0793.5608,12.2285,1.0847,24.4639,1.295,36.7019.2241,13.0406.0572,26.088.0646,39.1324A8.6089,8.6089,0,0,1,46.6064,439.3088Z" transform="translate(-3.2916 -3.3488)"/><path class="cls-7" d="M101.4,178.2574q.1123-1.5982.225-3.1965.6778-3.98,1.355-7.9593c-.9546-5.524,2.9531-9.8549,3.6753-14.9672,4.8679.9951,9.19,2.9291,12.2373,7.07-1.0438.1268-2.0643-.0165-2.5834,1.4112a47.3814,47.3814,0,0,0-2.8062,22.3428c.1544,1.24-.1515,3.3289,1.26,3.1831,1.4171-.1464.5021-2.1629.5648-3.3643.389-7.4636,4.3193-13.9547,5.7934-21.12q7.9373,9.8916,15.8761,19.7818c1.5407,1.9174-.2973,3.1782-.883,4.6842-3.4963,2.84-6.8334,5.9165-10.5537,8.4246-2.0126,1.3568-5.2061,4.3286-7.0213,1.6558-3.4536-5.0853-4.7829-4.2276-6.166,2.7528-.3255-8.7577.035-16.06-8.6139-18.74l-.1029-.0438q-.5865-.3168-1.1733-.6341l-.1007-.0677Q101.8909,178.8642,101.4,178.2574Z" transform="translate(-3.2916 -3.3488)"/><path class="cls-8" d="M91.1212,450.3566c2.6536-.7555.4373-4.632,3.3475-5.2231l1.2771-.0517c.3689.1453.945.5215,1.0771.4029,9.5884-8.6043,19.7664-6.9506,30.1931-1.8479,2.6006,1.2728,5.1443,2.8,8.1956,2.7844,6.8454,6.6344-1.168,10.6711-2.767,15.8285q-1.8348-.6114-3.67-1.2188-.71-.4611-1.4192-.9271c-4.5742-2.4-9.1318-4.85-14.5188-4.7839q-1.9491-.0846-3.898-.1685l-3.2659.5595a14.0287,14.0287,0,0,0-9.3865,4.99q-.3653.5433-.7306,1.0865l-3.1886,4.5693C86.919,461.415,85.1111,456.19,91.1212,450.3566Z" transform="translate(-3.2916 -3.3488)"/><path class="cls-8" d="M36.2353,439.9172c4.3865-.7256,7.5135,1.8527,9.9809,4.6711,5.7486,6.5666,13.18,7.7462,21.1993,7.7719,5.4238.0174,11.6307-1.6614,13.8986,5.8792-.2872,3.6806-.176,7.4478-.9541,11.0214-1.1909,5.47-5.7137,2.0428-8.7117,2.7516q-5.2656-3.6105-10.5293-7.2214c-4.7426-8.1171-9.7339-9.8714-16.546-5.8154l-8.1967.4624C33.1125,452.9543,31.0764,446.4617,36.2353,439.9172Z" transform="translate(-3.2916 -3.3488)"/><path class="cls-7" d="M128.7744,461.0284q1.8352.61,3.67,1.2213c-.3232,4.0648,4.4134,8.8565-2.252,12.0521-3.2822,1.5735-5.2827.3712-7.552-1.3982-3.4383-3.4038-7.24-4.8237-11.79-2.1626a3.8214,3.8214,0,0,1-.5285-.0129l-1.4584-.0072c-5.2018-.162-8.8306,6.9345-14.8047,3.2083q-.8453-3.786-1.6911-7.5722,1.5931-2.2853,3.1889-4.5678c1.9381,1.6963,3.5151.8029,5.0079-.695q.8352-.2562,1.671-.5109,3.672-.5928,7.3427-1.1882.9389-.0026,1.8782-.0044c1.1024.198,2.1737,1.2064,3.3233.1256l3.3547.0041C121.5649,460.8416,124.77,463.7564,128.7744,461.0284Z" transform="translate(-3.2916 -3.3488)"/><path class="cls-7" d="M61.119,464.791q5.2643,3.6108,10.5293,7.2214c-8.8456,3.6463-17.7274,6.4987-26.971,1.1966-6.305-5.7316-13.2824-4.2648-20.3437-1.9.93-7.0859,6.3844-9.5812,12.0428-11.87q4.0982-.2325,8.1974-.4636c3.1613,1.394,6.3346,2.76,9.4779,4.1925C56.3054,464.1947,58.2375,466.5273,61.119,464.791Z" transform="translate(-3.2916 -3.3488)"/><path class="cls-9" d="M88.6522,9.5751q-.6867-.2774-1.3733-.5542-.3159-.4653-.6317-.9318l-.634.8934C75.5184,8.45,65.4841,9.9256,55.85,14.5534c-10.533,5.06-17.6712,13.5167-24.3769,22.57q-.56.0681-1.12.133C38.272,21.5628,48.3291,7.7183,66.7344,4.0961c10.9367-2.1524,22.0971.8846,33.0993,2.3333C96.3048,8.1827,91.3168,4.75,88.6522,9.5751Z" transform="translate(-3.2916 -3.3488)"/><path class="cls-10" d="M69.5467,204.5067c5.9534,5.72,4.418,13.8394,6.3034,20.7882,2.9717,10.9522,2.3316,10.9957-8.9821,13.3931-3.67.7778-7.8547.4741-10.678,3.78-.4284-2.4785-2.0028-1.7955-3.5188-1.274q-15.1857,3.1443-30.37,6.2884-.3444-1.4715-.69-2.9434c3.9744-.7924,8.0207-1.3391,11.8892-2.4857,1.7786-.5272,3.8889-1.6081,3.9512-4.174l1.9712-.6784a3.645,3.645,0,0,0,.0233.6117c-.194,2.0394.2,3.0441,2.7168,2.4237,9.68-2.3866,19.3857-4.6824,29.1352-6.7616,2.4045-.5128,2.8477-1.1715,2.569-3.6363C72.9018,221.3035,68.2362,213.4073,69.5467,204.5067Z" transform="translate(-3.2916 -3.3488)"/><path class="cls-6" d="M95.7458,445.0818l-1.2771.0517c3.492-5.082,7.4247-9.6182,13.7942-11.1358a58.947,58.947,0,0,1,15.9483,3.8558c1.0911.4043,2.2043,1.1215,3.36.0812a2.7811,2.7811,0,0,0,.7581-2.6279c-1.0555-14.0784-2.2086-28.1541-2.934-42.2512-.5429-10.55-.524-21.1292-.6922-31.6964a18.2563,18.2563,0,0,1,.5911-3.4279c1.3072,17.6727,2.6567,35.3424,3.9053,53.0192.7126,10.0874,1.2609,20.1865,1.8831,30.28-3.2845-.71-6.6072-1.2784-9.8465-2.1554C111.626,436.4737,102.4609,435.5062,95.7458,445.0818Z" transform="translate(-3.2916 -3.3488)"/><path class="cls-11" d="M14.4754,164.5713c2.598-1.7153,5.5216-2.07,8.5365-2.042,1.1464-.1026,1.1439-1.01,1.43-1.8411,1.0825-3.1428,7.2912-4.6443,9.7472-2.3245,2.7418,2.59,5.2908,1.9766,7.8585-.19l3.0114-.4936.9384.2157q.9411,3.6208,1.8823,7.2417l-32.0449,6.5612Z" transform="translate(-3.2916 -3.3488)"/><path class="cls-12" d="M51.06,120.8467q5.4132,4.45,10.8269,8.8988l-7.4921,7.859c-1.9157-.0994-3.4561.3645-3.8426,2.56l-2.5874-.6388c-.5322-3.0808-.7856-6.3115-4.214-7.8344-.3694-5.45,2.5386-10.6235,1.3577-16.14Q48.0835,118.2,51.06,120.8467Z" transform="translate(-3.2916 -3.3488)"/><path class="cls-13" d="M43.75,131.6915c3.4284,1.5229,3.6818,4.7536,4.214,7.8344-2.0825.6918-.7343,2.175-.7031,3.2931.1387,4.9728-1.7345,8.7567-6.5249,10.5425-3.6165,1.3482-6.65-.0852-9.0523-2.8608-1.2575-1.4531-1.788-3.5489-.12-4.6508,1.9392-1.2806.2341,1.8162,1.5832,1.8567.8047.0241,1.7372.5588,2.3763.2941,1.1651-.4825,1.2454-1.6786.9111-2.822-1.835-6.2759-.1513-9.691,7.0305-8.79C44.5993,136.5312,44.62,136.3657,43.75,131.6915Z" transform="translate(-3.2916 -3.3488)"/><path class="cls-12" d="M88.6522,9.5751C91.3168,4.75,96.3048,8.1827,99.8337,6.4294l6.4179,2.4655a2.6525,2.6525,0,0,0,3.4028,2.1338,56.775,56.775,0,0,1,15.86,24.0654c-.6057.8267-1.168.4073-1.5208-.1725-6.3095-10.3713-15.5617-17.3607-26.15-22.8211C96.71,9.592,94.5024,10.34,92.537,10.3528q-.6357-.0583-1.2718-.1154c-.2254-.7247-.4811-1.3775-1.3489-.56Z" transform="translate(-3.2916 -3.3488)"/><path class="cls-14" d="M24.3336,471.309c7.0613-2.3648,14.0387-3.8316,20.3437,1.9-.2459,2.7951,1.0613,6.74-2.7747,7.5156-5.5153,1.1154-11.384,1.2882-16.3381-2.0608C23.1324,477.02,22.9729,474.0669,24.3336,471.309Z" transform="translate(-3.2916 -3.3488)"/><path class="cls-10" d="M66.9122,182.8645q1.309,9.1755,2.6185,18.351c-1.3522-.2124-1.6229-1.2858-1.8791-2.3671-2.2132-9.3424-4.3515-18.7032-6.6552-28.0232-3.3794-13.6716-3.43-13.6591-11.7341-10.9243l-.9323-2.6061c1.7557-1.3474,4.1341-2.4665,1.9306-5.2655q.4292-.239.8584-.4777c.8016,1.2881.4275,3.5554,2.6534,3.6424,1.7155.067,3.5525-.0632,4.2585-2.1739l4.1,7.1277,3.5414,13.3882.2062.8114.4787,3.5761A4.8686,4.8686,0,0,0,66.9122,182.8645Z" transform="translate(-3.2916 -3.3488)"/><path class="cls-15" d="M120.6966,472.7305c.63,6.0832-2.3434,8.702-8.2052,8.4642-4.3355-.176-8.6925-.2182-12.9925-.723-2.4781-.2911-4.8826-1.3618-4.9652-4.5837,6.253,3.3567,9.3492-3.7412,14.405-4.3511q.6329-.0027,1.2661-.0034a1.2317,1.2317,0,0,0,1.9679-.2223l2.0051-.0079,2.71.473C118.0912,472.36,119.76,471.0825,120.6966,472.7305Z" transform="translate(-3.2916 -3.3488)"/><path class="cls-16" d="M62.1312,160.1478q-2.05-3.5639-4.1015-7.1258-.3419-1.5664-.6812-3.1368l2.38-.4537c1.0813,5.4112,13.7492,18.7357,18.7343,18.0708,6.6115-.8818,12.0068-4.9436,15.5642-10.99,1.4069-2.3912,2-5.7372,5.7671-5.8688a1.1852,1.1852,0,0,1,.6176.1682q-2.5278,4.9818-5.0561,9.9632c-1.9185-.2835-2.63,1.4-3.7406,2.3624-11.7444,10.1715-11.8874,9.83-22.9063,1.772C66.5368,163.3215,65.4238,160.1668,62.1312,160.1478Z" transform="translate(-3.2916 -3.3488)"/><path class="cls-2" d="M124.1153,73.823c1.7739.1,2.63,1.1311,3.1357,2.77,2.33,7.55-2.4722,20.6854-8.4789,23.028.2168-3.0337.3761-6.0654,3.1034-8.1839.3946-.3065.3926-1.1235.5742-1.7043-.2766-.04-.6556-.2187-.8146-.1007-3.3461,2.4835-2.1734-.8486-2.1746-1.8617-.0031-2.6938.3193-5.3878.5123-8.0818C121.0624,77.5277,121.9032,75.1912,124.1153,73.823Z" transform="translate(-3.2916 -3.3488)"/><path class="cls-13" d="M124.1153,73.823c-2.2121,1.3682-3.0529,3.7047-4.1425,5.8661-2.2239-4.7422-.5381-10.0225-2.0439-14.864l1.1757-1.5906a22.977,22.977,0,0,0,10.6338-6.68C128.59,62.5474,128.0726,68.7453,124.1153,73.823Z" transform="translate(-3.2916 -3.3488)"/><path class="cls-2" d="M38.0311,98.396c-6.1259-2.7346-10.3464-13.0133-9.5171-23.1771q.5694-.0156,1.14-.03c2.1578,3.0413,5.5482,5.1593,6.7042,8.951Z" transform="translate(-3.2916 -3.3488)"/><path class="cls-17" d="M117.9289,64.8251c1.5058,4.8415-.18,10.1218,2.0439,14.864-.193,2.6934-.5154,5.3874-.5123,8.0812.0012,1.0131-1.1715,4.3452,2.1746,1.8617.159-.118.538.06.8146.1007-.1816.5808-.18,1.3978-.5742,1.7043-2.7273,2.1185-2.8866,5.15-3.1034,8.1839q-1.63,4.257-3.2608,8.5134-.3514-.0112-.7025-.0221c3.1752-13.1893.5863-26.571,1.3712-39.8379a11.9981,11.9981,0,0,1,1.1936-3.2435A3.606,3.606,0,0,1,117.9289,64.8251Z" transform="translate(-3.2916 -3.3488)"/><path class="cls-17" d="M38.0311,98.396q-.8364-7.128-1.6729-14.2557c1.8289-.3088.8185-1.6844.8953-2.5712.2942-3.3968.4737-6.8035.696-10.2066C41,76.7,39.2892,82.6582,39.8217,88.2707c1.0419,10.98,3.5128,21.132,10.5168,29.8866.531.6638.4944,1.7818.7213,2.689q-2.9763-2.6469-5.9517-5.2953Q41.57,106.9726,38.0311,98.396Z" transform="translate(-3.2916 -3.3488)"/><path class="cls-2" d="M11.1668,210.412q-.9336-.0592-1.8672-.118c-2.1259-5.7318-2.1713-11.7328-2.2878-17.7247a.3076.3076,0,0,1,.4271.0365q2.4415.645,4.883,1.29,1.09.3764,2.179.7515l.6579,2.6335c-.84.6848-.82,1.3366.0752,1.9547l-.03,1.9592q-.0227,2.8974-.0452,5.7949-.6871.6633-1.3744,1.3262Z" transform="translate(-3.2916 -3.3488)"/><path class="cls-5" d="M48.33,157.2948l.9323,2.6061q.2715,1.1265.5431,2.2549.438,2.5274.8758,5.0509c-1.8443,3.51-5.5209,2.6969-8.4334,3.324-9.2231,1.9859-18.2167,5.121-27.7241,5.7212l-1.37-5.9238q-.6019-1.37-1.2035-2.7387-.0666-1.25-.1345-2.5016,1.33-.2589,2.66-.5172.6793,3.5648,1.3589,7.1282c.7479,1.211.0568,3.5291,3.1014,2.7478,8.7134-2.2359,17.5249-4.0893,26.297-6.0969,1.7009-.3893,3.2057-.9543,2.6468-3.2122q-.9411-3.6208-1.8826-7.2413.034-.3444.0688-.6894Z" transform="translate(-3.2916 -3.3488)"/><path class="cls-16" d="M103.7589,180.2161c8.6489,2.68,8.2884,9.9823,8.6139,18.74,1.3831-6.98,2.7124-7.8381,6.166-2.7528,1.8152,2.6728,5.0087-.299,7.0213-1.6558,3.72-2.5081,7.0574-5.5846,10.5537-8.4246q.0684.6677.137,1.3355c-5.0107,2.6643-6.8331,7.3055-7.7554,12.5048q-.3735-.5826-.7475-1.1649l-.6041-.7729c-3.1794-3.8084-6.1356,3.2877-9.5584.0667-6.0312-5.6757-3.4587,3.9342-6.4646,3.8047-.8015-4.8869.8009-9.9748-1.2393-14.7591C108.6073,184.15,106.227,182.1453,103.7589,180.2161Z" transform="translate(-3.2916 -3.3488)"/><path class="cls-3" d="M95.7458,445.0818c6.7151-9.5756,15.88-8.6081,25.49-6.0063,3.2393.877,6.562,1.4458,9.8465,2.1554.4987,2.4283,5.8318,1.0106,4.1291,5.19-3.0513.016-5.595-1.5116-8.1956-2.7844-10.4267-5.1027-20.6047-6.7564-30.1931,1.8479C96.6908,445.6033,96.1147,445.2271,95.7458,445.0818Z" transform="translate(-3.2916 -3.3488)"/><path class="cls-16" d="M121.1207,161.6569c-1.4741,7.1652-5.4044,13.6563-5.7934,21.12-.0627,1.2014.8523,3.2179-.5648,3.3643-1.4113.1458-1.1054-1.9433-1.26-3.1831a47.3814,47.3814,0,0,1,2.8062-22.3428c.5191-1.4277,1.54-1.2844,2.5834-1.4112Q120.0068,160.43,121.1207,161.6569Z" transform="translate(-3.2916 -3.3488)"/><path class="cls-17" d="M90.19,140.8513c-2.7288.9242-16.8258-3.6441-18.3495-5.9594A4.506,4.506,0,0,1,71.5,134.05c.5955-.1166,1.2475-.4528,1.7778-.3162a30.2073,30.2073,0,0,0,17.1631-.6851Q90.3152,136.95,90.19,140.8513Z" transform="translate(-3.2916 -3.3488)"/><path class="cls-10" d="M11.9494,167.5887q.6019,1.37,1.2041,2.7394c-5.1019.355-6.4338,2.7967-4.04,7.3l.5205,2.5367c-.5884,4.8672,2.6776,8.98,2.6881,13.73q-2.4414-.6444-4.8828-1.2891-.0692-1.318-.1378-2.6341c1.1538-4.061.3941-7.9431-1.1067-11.7554l-.914-6.5519.2986-1.5672a.7636.7636,0,0,1,.2281-.5211C8.1263,169.7535,10.0357,168.6645,11.9494,167.5887Z" transform="translate(-3.2916 -3.3488)"/><path class="cls-10" d="M11.1668,210.412q1.3088-1.0482,2.6176-2.0964a41.2,41.2,0,0,0,.4639,5.4946c2.216,10.2277,4.539,20.4322,6.8258,30.6445l-2.376-2.5377-1.41-6.0412c1.9652-.97.5433-1.3752-.313-1.8751Q14.0709,222.2064,11.1668,210.412Z" transform="translate(-3.2916 -3.3488)"/><path class="cls-15" d="M7.0118,192.5693c.1165,5.9919.1619,11.9929,2.2878,17.7247-2.8107.7529-3.0133-1.4114-3.8313-3.1939-1.7573-3.829-1.5794-7.9469-1.9627-11.9517C3.3134,193.14,5.2917,192.7082,7.0118,192.5693Z" transform="translate(-3.2916 -3.3488)"/><path class="cls-6" d="M30.3539,37.2564q.56-.0657,1.12-.133c-.9331,3.9248-1.9022,7.8432-2.7762,11.7827a27.418,27.418,0,0,0-.3329,3.4919q-.0391,2.0929-.0762,4.1864-1.25.7686-2.4992,1.537C25.79,50.8335,25.7933,43.5464,30.3539,37.2564Z" transform="translate(-3.2916 -3.3488)"/><path class="cls-7" d="M48.33,157.2948q-1.132-.0441-2.265-.0875l-1.006.4728q-1.5057.2467-3.0111.4926c-1.1914-.616-3.0051,1.59-3.7971-.8382,3.3213-3.3136,7.5473-4.58,12.0106-5.3064C52.4641,154.8283,50.0857,155.9474,48.33,157.2948Z" transform="translate(-3.2916 -3.3488)"/><path class="cls-5" d="M5.28,171.6644q.457,3.276.9126,6.5519-.2824,3.0056-.5619,6.011c-2.461-5.11-2.7067-10.5955-1.9833-16.0091.29-2.1738,2.9206-2.5391,5.1055-2.2953q-1.4736,1.8266-2.9462,3.6532a.7521.7521,0,0,0-.2259.5219C5.01,170.5293,4.4272,170.9578,5.28,171.6644Z" transform="translate(-3.2916 -3.3488)"/><path class="cls-6" d="M121.9888,287.693c-.1764-5.0591-.2557-10.1247-.5862-15.1737-.1039-1.5869.9891-1.3425,1.7268-1.7524C123.914,276.4875,127.1051,282.37,121.9888,287.693Z" transform="translate(-3.2916 -3.3488)"/><path class="cls-3" d="M43.9638,260.77c.0144,1.84.0078,3.6815.0535,5.5213.018.7261-.0753,1.6921,1.1521,1.4007,1.0838-.2574,1.819-2.0978,3.2014-.6985a3.16,3.16,0,0,1-.9986,1.3906c-1.651,1.1123-3.2434,2.6256-5.51,1.6725a25.8379,25.8379,0,0,1-2.3994-1.3078C39.6851,265.3684,41.7814,263.0451,43.9638,260.77Z" transform="translate(-3.2916 -3.3488)"/><path class="cls-10" d="M29.6541,75.189q-.57.0146-1.14.03c.9729-5.1009-2.8421-9.4452-2.29-14.4806,1.2952.6447,2.9785.6883,3.6255,2.3392C29.4361,67.11,31.5475,71.1816,29.6541,75.189Z" transform="translate(-3.2916 -3.3488)"/><path class="cls-15" d="M38.2508,157.3345c.792,2.4282,2.6057.2222,3.7971.8382-2.568,2.1676-5.117,2.7806-7.8588.191-2.456-2.32-8.6647-.8183-9.7472,2.3245-.2861.8307-.2836,1.7385-1.43,1.8411-.2556-2.6869.1644-5.217,3.1108-6.0438,3.0021-.8425,6.4055-2.6482,8.9147.8481C36.3718,159.193,37.1944,157.5921,38.2508,157.3345Z" transform="translate(-3.2916 -3.3488)"/><path class="cls-8" d="M57.3485,149.8852q.34,1.5693.6812,3.1368c-.7048,2.1088-2.5418,2.239-4.2573,2.172-2.2259-.087-1.8518-2.3543-2.6534-3.6424Q54.2339,150.7182,57.3485,149.8852Z" transform="translate(-3.2916 -3.3488)"/><path class="cls-18" d="M108.9388,471.5379c-5.0559.6089-8.1521,7.7068-14.4051,4.35q-.2376-.98-.4754-1.9589c5.9744,3.7263,9.6032-3.37,14.8055-3.2084Q108.9018,471.1292,108.9388,471.5379Z" transform="translate(-3.2916 -3.3488)"/><path class="cls-16" d="M52.6712,241.1935c1.516-.5215,3.09-1.2045,3.5188,1.274a.39.39,0,0,0,.1209.3718q-.3045.51-.6086,1.0165c-1.3126,1.1716-1.2317,5.5755-4.5982,1.9822Q51.8877,243.5156,52.6712,241.1935Z" transform="translate(-3.2916 -3.3488)"/><path class="cls-5" d="M123.5468,321.8146q-.8-.15-1.5988-.2985c1.0562-4.3493.2668-8.5142-1.2666-12.6044,2.2156.151,1.1365-1.9542,1.9107-2.79A64.2837,64.2837,0,0,1,123.5468,321.8146Z" transform="translate(-3.2916 -3.3488)"/><path class="cls-19" d="M5.6311,184.2273q.28-3.0056.5619-6.011c1.5022,3.8123,2.2619,7.6944,1.1082,11.7554Q6.466,187.0983,5.6311,184.2273Z" transform="translate(-3.2916 -3.3488)"/><path class="cls-16" d="M114.1778,471.3033l-2.0049.008-1.3227-.57c4.55-2.6611,8.3521-1.2412,11.79,2.1626q-.9717-.0863-1.9438-.1733c-.9365-1.6478-2.6056-.3707-3.8089-.9527C116.188,470.46,115.2544,470.4743,114.1778,471.3033Z" transform="translate(-3.2916 -3.3488)"/><path class="cls-19" d="M5.8071,169.5761Q7.28,167.75,8.7533,165.9229q1.5323-.4175,3.0628-.835.0666,1.251.1338,2.5015C10.0357,168.6645,8.1263,169.7535,5.8071,169.5761Z" transform="translate(-3.2916 -3.3488)"/><path class="cls-19" d="M18.6981,241.917q1.188,1.2689,2.3757,2.538a1.93,1.93,0,0,0,.5361.0839q.3464,1.4715.6913,2.943C17.52,247.9437,20.008,243.7013,18.6981,241.917Z" transform="translate(-3.2916 -3.3488)"/><path class="cls-13" d="M50.5518,140.1647c.3865-2.1957,1.9269-2.66,3.8426-2.56C53.4794,139.0071,52.3933,140.1527,50.5518,140.1647Z" transform="translate(-3.2916 -3.3488)"/><path class="cls-6" d="M124.9667,351.4154c-1.5607-1.1942-1.1557-2.5625-.3514-3.9661Q124.791,349.4325,124.9667,351.4154Z" transform="translate(-3.2916 -3.3488)"/><path class="cls-9" d="M109.6544,11.0286a2.6524,2.6524,0,0,1-3.4028-2.1337Z" transform="translate(-3.2916 -3.3488)"/><path class="cls-8" d="M91.1164,432.6586c1.16,1.0665,1.0078,2.1693.0907,3.293Z" transform="translate(-3.2916 -3.3488)"/><path class="cls-19" d="M16.975,234.0007c.8563.5,2.2782.9053.313,1.8751Q17.1312,234.9373,16.975,234.0007Z" transform="translate(-3.2916 -3.3488)"/><path class="cls-6" d="M124.2262,338.9647c-1.2175-.7859-1.1063-1.6933-.2442-2.6694Z" transform="translate(-3.2916 -3.3488)"/><path class="cls-6" d="M122.0283,302.8418l-1.17-1.1027,1.1006-.8675Z" transform="translate(-3.2916 -3.3488)"/><path class="cls-6" d="M122.8891,269.4524c-1.0963-.5939-.8481-1.5007-.5618-2.4168Q122.609,268.2435,122.8891,269.4524Z" transform="translate(-3.2916 -3.3488)"/><path class="cls-17" d="M113.71,111.6106l-.3721-1.2147.9767.4979Q114.0127,111.2526,113.71,111.6106Z" transform="translate(-3.2916 -3.3488)"/><path class="cls-6" d="M121.57,289.132c-1.21-.8352-.6476-1.1825.3854-1.4Q121.7628,288.432,121.57,289.132Z" transform="translate(-3.2916 -3.3488)"/><path class="cls-8" d="M90.37,414.2937c.8182.3626.9772.7985.1494,1.344Z" transform="translate(-3.2916 -3.3488)"/><path class="cls-2" d="M114.8088,108.1122q.3512.011.7025.0221-.2142.44-.4274.88c-.0914-.0805-.1817-.1647-.2693-.2517l.0057-.6637Z" transform="translate(-3.2916 -3.3488)"/><path class="cls-13" d="M129.6672,54.9873l-.0689.0117.03.3167A.4148.4148,0,0,0,129.6672,54.9873Z" transform="translate(-3.2916 -3.3488)"/><path class="cls-7" d="M62.1312,160.1478c3.2926.019,4.4056,3.1737,6.5772,4.7618,11.0189,8.0578,11.1619,8.3995,22.9063-1.772,1.1108-.962,1.8221-2.6459,3.7406-2.3624q-2.6978,8.7664-5.3978,17.5323c-7.8842.9371-15.7615,1.4716-23.6-.384q-.2394-1.7881-.48-3.5766-.1036-.4059-.2049-.8109Z" transform="translate(-3.2916 -3.3488)"/><path class="cls-20" d="M49.8054,162.1539l-.5431-2.253c8.3044-2.7348,8.3547-2.7473,11.7341,10.9243,2.3037,9.32,4.442,18.6808,6.6552,28.0232.2562,1.0813.5269,2.1547,1.8791,2.3671q.0078,1.6454.0162,3.291c-1.3107,8.9008,3.3549,16.797,4.32,25.3314.2787,2.4648-.1645,3.1235-2.569,3.6363-9.75,2.0792-19.4554,4.375-29.1352,6.7616-2.5163.62-2.9108-.3843-2.717-2.423q.9337-.2829,1.8679-.567c.9734-.063,2.1224.4182,2.7-.8718l1.3366-.298c.8809.7882,1.5389.6725,1.9415-.4788l1.301-.2888c.658.83,1.05.5187,1.3223-.3079l1.3313-.2543c.6267.7408,1.0088.4279,1.2946-.3l1.961-.4235c.6584.8072,1.0436.479,1.3163-.3168L71.0024,230.07c1.0119-.2484,1.5454-.5982.2812-1.3285-4.6776-20.6974-9.5176-41.36-13.9151-62.1169C56.3094,161.6253,54.5759,159.8616,49.8054,162.1539Z" transform="translate(-3.2916 -3.3488)"/><path class="cls-6" d="M66.3575,177.9235c7.8385,1.8556,15.7158,1.3211,23.6.384.179,1.9725-.7312,2.4908-2.6727,2.6336-6.801.5-13.5828,1.2613-20.3723,1.9233A4.8677,4.8677,0,0,1,66.3575,177.9235Z" transform="translate(-3.2916 -3.3488)"/><path class="cls-3" d="M116.9657,258.7932q2.0445,2.6109,4.09,5.2213c-3.4365,10.6326-7.3442,1.9953-10.4618-.0753-2.179-1.4473-5.8644-2.0909-5.75-5.97.0194-.6608.0527-1.3211.08-1.9817a12.4114,12.4114,0,0,1,1.4213,1.0946c2.4364,2.4892,4.8253,5.0249,7.2736,7.5022,1.0575,1.07,2.42,2.7285,3.7969,1.82,1.4469-.9549-.1589-2.7257-.3372-4.1405C116.9306,261.0977,115.3769,260.0187,116.9657,258.7932Z" transform="translate(-3.2916 -3.3488)"/><path class="cls-17" d="M101.1041,230.0349c2.3769,5.0926,1.9624,11.2961,6.2206,15.637-3.0251,2.1775-4.8616.9387-5.5232-2.2347C100.8828,239.0306,100,234.57,101.1041,230.0349Z" transform="translate(-3.2916 -3.3488)"/><path class="cls-5" d="M93.806,326.4816c-4.8419-7.2093-4.04-14.9984,2.3759-23.0454q2.7616-.936,5.5192-1.8786a1.1368,1.1368,0,0,1,.008.42q-2.0195,1.0859-4.0384,2.1686l-.5717.5866-.0705.0674-.5674.5046c-5.39,6.46-5.3082,13.5614-2.4575,20.9867Z" transform="translate(-3.2916 -3.3488)"/><path class="cls-15" d="M101.7093,301.9757a1.1327,1.1327,0,0,0-.0082-.4181c7.0119-2.9164,13.283-.8837,17.7748,5.7623q-.0138.3643-.0265.727l-.0363.0376C114.784,302.3614,108.7747,300.6382,101.7093,301.9757Z" transform="translate(-3.2916 -3.3488)"/><path class="cls-3" d="M56.2772,257.53c.226,5.1231-4.1669,5.0492-5.8354,7.5062-.35.5159-1.2223-.0554-.8324-.6119,1.793-2.559,3.7331-5.0157,5.6549-7.4824.135-.1734.7868-.2065.7964-.1765C56.25,257.3583,56.38,257.97,56.2772,257.53Z" transform="translate(-3.2916 -3.3488)"/><path class="cls-15" d="M120.6814,308.9117c1.5334,4.09,2.3228,8.2551,1.2666,12.6044q-.26.8453-.5195,1.6927-.3348.0034-.6695.0073l-.0282-.0335c1.7528-4.9015.0817-9.6386-.6923-14.4188l.2337-.1862A.465.465,0,0,1,120.6814,308.9117Z" transform="translate(-3.2916 -3.3488)"/><path class="cls-16" d="M102.98,167.1016q-.6774,3.98-1.355,7.9593C101.0847,172.239,101.1527,169.5206,102.98,167.1016Z" transform="translate(-3.2916 -3.3488)"/><path class="cls-16" d="M101.4,178.2574q.4913.6068.9823,1.2131C101.5939,179.4389,101.0751,179.19,101.4,178.2574Z" transform="translate(-3.2916 -3.3488)"/><path class="cls-16" d="M102.4827,179.5382q.5867.3171,1.1733.6341Z" transform="translate(-3.2916 -3.3488)"/><path class="cls-17" d="M100.9666,227.54a.3881.3881,0,0,1,.0128.4814,2.6044,2.6044,0,0,1-.17-.3524C100.8021,227.6453,100.9113,227.5835,100.9666,227.54Z" transform="translate(-3.2916 -3.3488)"/><path class="cls-5" d="M119.4494,308.0469q.0131-.3631.0265-.727.3029.3829.6047.7674A2.1439,2.1439,0,0,1,119.4494,308.0469Z" transform="translate(-3.2916 -3.3488)"/><path class="cls-15" d="M119.4494,308.0469a2.1439,2.1439,0,0,0,.6312.04.57.57,0,0,1,.1911.4906l-.2331.1859q-.3126-.34-.6255-.6794Z" transform="translate(-3.2916 -3.3488)"/><path class="cls-10" d="M55.7023,243.8558q.3042-.5076.6086-1.0165Q56.0069,243.3462,55.7023,243.8558Z" transform="translate(-3.2916 -3.3488)"/><path class="cls-19" d="M79.5624,122.5893c-6.2441-.019-14.1475-6.3819-15.6484-12.4954-.3706-1.51.5168-1.6142,1.5261-1.849,9.8011-2.28,19.7155-1.3,29.607-1.0891.8892.0189,1.07.1154.9839,1.0357C95.431,114.6239,86.3384,122.61,79.5624,122.5893Zm.4616-6.3058c4.0674-.6467,9.0458-.52,11.9332-5.3652.2614-.4387.5556-.8579.8345-1.2861a9.9576,9.9576,0,0,0-1.8275.1253,67.8042,67.8042,0,0,1-15.1952,1.6572c-2.48.0585-7.2371-.9827-7.02-.1483.9206,3.5348,4.6766,4.2542,8.0533,4.7936C77.6571,116.1965,78.5352,116.1858,80.024,116.2835Z" transform="translate(-3.2916 -3.3488)"/><path class="cls-21" d="M117.9289,64.8251a3.606,3.606,0,0,0-.5553.2057c-2.22.856-4.2552-4.2039-6.5732-.2038-3.0218-5.321-8.1966-6.8959-13.7122-7.8776-3.8315-3.5172-8.8655-3.6846-13.5138-4.273-9.2614-1.1722-18.4761-.5245-27.2719,3.0957-.9279.3819-1.8532.7544-1.8061,2.0079l-6.847,3.2045c-3.3689-.4749-5.4747,2.2128-8.2257,3.2843q-.4.0087-.7992.0192L36.83,64.89l-1.412.0584-2.5555-1.2929c12.051-2.2125,21.3976-11.3873,33.8094-12.8738,14.3924-1.7237,27.885.1325,40.2979,8.053a25.3346,25.3346,0,0,0,12.1336,4.3989Q118.5171,64.03,117.9289,64.8251Z" transform="translate(-3.2916 -3.3488)"/><path class="cls-12" d="M35.4184,64.948,36.83,64.89q.6366.3,1.2744.6l.0753,2.6362q-.1149,1.6186-.23,3.2371c-.2225,3.403-.402,6.81-.6962,10.2065-.0768.8868.9336,2.2624-.8953,2.5712-1.1559-3.792-4.5463-5.91-6.7041-8.9513,1.8934-4.0074-.218-8.0793.1954-12.1115q.8426.2893,1.6838.5806A2.7607,2.7607,0,0,0,35.4184,64.948Z" transform="translate(-3.2916 -3.3488)"/><path class="cls-12" d="M97.0882,56.9494c5.5156.9817,10.69,2.5566,13.7122,7.8776q.015.3431.0316.6867-.6358.1048-1.2722.21a27.7153,27.7153,0,0,0-19.2452-2.5364c-.8757.1824-1.8975.3168-2.0076-.9249-.1619-1.8266.2377-3.7887,2.0854-4.3724A38.2652,38.2652,0,0,1,97.0882,56.9494Z" transform="translate(-3.2916 -3.3488)"/><path class="cls-12" d="M47.6494,60.9845l6.847-3.2045a89.9762,89.9762,0,0,1,9.7746.12c2.9615.3376,4.0434,2.947,3.34,5.3681-.8508,2.9268-2.6864.2059-3.87-.123a24.4585,24.4585,0,0,0-14.7721.1905,26.234,26.234,0,0,1-4.0086.7107Z" transform="translate(-3.2916 -3.3488)"/><path class="cls-12" d="M46.2175,79.8282c.3162-5.8182,3.1839-9.5526,9.1-10.1095,4.8227-.454,8.9414.88,10.1955,6.4156q-1.8549-.87-3.71-1.7344-.3135-.5733-.626-1.1465c-2.9172-2.4213-5.8222-3.0564-8.703.0565l-1.9536.6865c-.059.069-.1753.1476-.1656.205a1.99,1.99,0,0,0,.1641.4169l-.0181.0238c-2.65.7723-2.0762,3.6039-3.3554,5.2518Z" transform="translate(-3.2916 -3.3488)"/><path class="cls-12" d="M89.0768,78.0227c.8543-5.3751,4.3551-8.0331,9.4414-8.36,6.2029-.3992,9.8887,2.826,11.0235,8.94l-1.3252.0579-1.36-2.6329a1.7077,1.7077,0,0,0-1.8423-2.04l-.01-.0055-1.2771-.7683c-3.474-1.857-6.8856-2.7439-10.0213.646-1.29.1634-2.3794.563-2.4978,2.1122Z" transform="translate(-3.2916 -3.3488)"/><path class="cls-17" d="M79.1284,94.9728c1.9614.2184,5.2756-.1416,5.602,2.149.3129,2.1961-2.8182,2.9991-4.9943,3.0139-2.201.015-4.9547-.6991-5.148-3.05C74.382,94.5783,77.1089,95.1158,79.1284,94.9728Z" transform="translate(-3.2916 -3.3488)"/><path class="cls-14" d="M98.4376,88.515a10.73,10.73,0,0,1-10.0023-.7012c-3.75-2.4759-.1463-5.67.4656-8.5455q.4491,1.3233.8981,2.6466C91.0608,86.2323,94.197,88.0964,98.4376,88.515Z" transform="translate(-3.2916 -3.3488)"/><path class="cls-14" d="M67.6176,80.22c3.7273,8.4421-1.9148,8.9819-7.8341,9.29-.01-.32-.02-.6422-.0294-.9643q.3369-.3458.674-.6914l2.7111-1.3388.5887-.5356.6554-.8143-.0453.0472.7127-.701-.019.075.7071-1.3806.0018.1192Z" transform="translate(-3.2916 -3.3488)"/><path class="cls-14" d="M106.8564,76.0268q.68,1.3166,1.36,2.6326.0075,3.7543.0151,7.51l-.2626-.0046-.0359.2609c-2.7039-.9985-4.5755,2.5176-7.311,1.3476l1.0947-1.2745c3.9482-2.5293,5.3466-5.9848,3.8164-10.5044Z" transform="translate(-3.2916 -3.3488)"/><path class="cls-8" d="M101.7167,86.4985q-.5474.6372-1.094,1.2747a.2638.2638,0,0,0-.3178.2671q-.9341.2373-1.8677.4747c-4.24-.4186-7.3764-2.2827-8.6382-6.6l.8834-.0543c2.5424,4.3421,6.0918,5.85,10.8821,3.863Z" transform="translate(-3.2916 -3.3488)"/><path class="cls-14" d="M61.8032,74.4q1.8546.8661,3.7095,1.7345l.1212.1307q-.5185.7488-1.0374,1.4975l-2.2128.7658c-1.5037-.4508-1.3962-1.77-1.5807-2.9322Z" transform="translate(-3.2916 -3.3488)"/><path class="cls-10" d="M108.2315,86.1691q-.0076-3.7551-.0151-7.51.6627-.0284,1.3253-.0575C110.2729,81.3265,110.7028,83.9989,108.2315,86.1691Z" transform="translate(-3.2916 -3.3488)"/><path class="cls-15" d="M59.7541,88.5464c.01.3221.0194.6442.0294.9643q-2.6731-.2392-5.3463-.4738-1.0708-.8327-2.1423-1.6674.4544-.4674.9072-.9326A10.8671,10.8671,0,0,0,59.7541,88.5464Z" transform="translate(-3.2916 -3.3488)"/><path class="cls-21" d="M100.3049,88.04a.2638.2638,0,0,1,.3178-.2671c2.7348,1.17,4.6064-2.3463,7.31-1.3478C105.6237,88.0658,103.3635,89.939,100.3049,88.04Z" transform="translate(-3.2916 -3.3488)"/><path class="cls-21" d="M52.2942,87.3705l2.143,1.6664c-2.617-.1431-4.9811-.8045-6.5176-3.1688q.0113-.36.0221-.718Z" transform="translate(-3.2916 -3.3488)"/><path class="cls-4" d="M64.5965,77.7625q.5189-.7488,1.0374-1.4975c.9285,1.1839,2.65,1.97,1.9837,3.9547q-.9385,1.5538-1.8769,3.1059C65.16,81.5119,66.5709,79.289,64.5965,77.7625Z" transform="translate(-3.2916 -3.3488)"/><path class="cls-10" d="M47.9417,85.15q-.011.3587-.0221.718c-3.1224-1.293-1.6941-3.8688-1.7021-6.04l.9272.0656Q47.5433,82.5218,47.9417,85.15Z" transform="translate(-3.2916 -3.3488)"/><path class="cls-3" d="M90.6835,81.8607l-.8845.0542q-.4489-1.3233-.8981-2.6466.0882-.6226.1763-1.2455,1.065-1.0259,2.1307-2.0516.1269.123.2562.2433Z" transform="translate(-3.2916 -3.3488)"/><path class="cls-21" d="M109.56,65.724q.6363-.1053,1.2722-.21.6273.5553,1.2553,1.11c-.2867.2516-.78.7562-.8289.7163C110.6546,66.8474,110.1156,66.2755,109.56,65.724Z" transform="translate(-3.2916 -3.3488)"/><path class="cls-17" d="M38.18,68.1255l-.0753-2.6362.52-1.2013q.4-.01.7992-.0192C39.0617,65.572,40.2806,67.3845,38.18,68.1255Z" transform="translate(-3.2916 -3.3488)"/><path class="cls-17" d="M114.82,108.0986l-.0057.6637a2.8991,2.8991,0,0,1-.2257-.4754C114.5781,108.25,114.7386,108.1627,114.82,108.0986Z" transform="translate(-3.2916 -3.3488)"/><path class="cls-5" d="M119.5,326.5876c-3.6513,5.8274-8.9648,8.1231-15.703,7.39a17.0478,17.0478,0,0,1-9.9911-7.4957l.197-.19a32.4448,32.4448,0,0,1,2.93,2.4151c5.3266,5.51,16.71,4.9785,19.346-.9413l1.8486-1.2453.282-.0539Z" transform="translate(-3.2916 -3.3488)"/><path class="cls-15" d="M119.5,326.5876l-1.0911-.1211q.8329-.9834,1.668-1.9669a3.0354,3.0354,0,0,0,.3263.3565q-.1848.4695-.37.9389-.27.3638-.5407.7276Z" transform="translate(-3.2916 -3.3488)"/><path class="cls-15" d="M120.7363,324.54a.3781.3781,0,0,1-.3345.3159,3.1092,3.1092,0,0,1-.3248-.3558q.3269-.6585.6538-1.3171l.0279.0332Q120.7473,323.8775,120.7363,324.54Z" transform="translate(-3.2916 -3.3488)"/><path class="cls-5" d="M120.7363,324.54q.0111-.6619.0224-1.3238.3351-.0033.67-.007Q121.0826,323.8743,120.7363,324.54Z" transform="translate(-3.2916 -3.3488)"/><path class="cls-5" d="M119.493,326.5226q.27-.3637.5407-.7276Q119.7633,326.1588,119.493,326.5226Z" transform="translate(-3.2916 -3.3488)"/><path class="cls-3" d="M28.2881,56.5844q.0376-2.0933.0762-4.1864c4.0066-.8243,5.8131-4.4051,8.336-6.9468C46.4591,35.6193,57.7131,28.66,71.5626,26.51c4.7322-.7346,9.5845-1.2587,13.7325,2.1643C62.3009,26.6734,46.0132,38.6909,31.45,54.373A17.9881,17.9881,0,0,1,28.2881,56.5844Z" transform="translate(-3.2916 -3.3488)"/><path class="cls-3" d="M87.82,28.9434c3.63-1.686,13.3842,1.5578,14.5235,4.83Q95.0814,31.3578,87.82,28.9434Z" transform="translate(-3.2916 -3.3488)"/><path class="cls-10" d="M35.4184,64.948a2.7607,2.7607,0,0,1-3.8851-1.29q.665-.0015,1.3295-.0034Q34.1408,64.3018,35.4184,64.948Z" transform="translate(-3.2916 -3.3488)"/><path class="cls-9" d="M92.537,10.3528c1.9654-.0133,4.173-.7608,5.3063,1.7477A6.6909,6.6909,0,0,1,92.537,10.3528Z" transform="translate(-3.2916 -3.3488)"/><path class="cls-12" d="M86.0132,8.9825l.634-.8934q.3159.4662.6317.9318Q86.6461,9.0011,86.0132,8.9825Z" transform="translate(-3.2916 -3.3488)"/><path class="cls-9" d="M89.9163,9.6773c.8678-.8174,1.1235-.1646,1.3489.56Q90.5911,9.9559,89.9163,9.6773Z" transform="translate(-3.2916 -3.3488)"/><path class="cls-17" d="M120.645,235.9233c3.9631-5.6407,7.8633-11.3271,11.92-16.9a9.1129,9.1129,0,0,0,1.9989-7.2933c3.4976,3.8725,1.8015,7.3955-1.1006,10.4076C129.107,226.6593,126.6561,232.9563,120.645,235.9233Z" transform="translate(-3.2916 -3.3488)"/><path class="cls-17" d="M116.6739,240.627q1.02-1.1987,2.04-2.3978C118.9089,239.7722,118.3369,240.6636,116.6739,240.627Z" transform="translate(-3.2916 -3.3488)"/><path class="cls-17" d="M118.7026,237.9636l1.9745-2.0484C120.87,237.4188,120.1283,238.0207,118.7026,237.9636Z" transform="translate(-3.2916 -3.3488)"/><path class="cls-15" d="M118.1342,459.52q-1.6773-.0021-3.3543-.004-.3081-.3037-.6168-.6076l-1.3266-3.5885c5.3869-.0668,9.9445,2.3834,14.5186,4.7836C124.1438,462.0835,121.2747,458.6577,118.1342,459.52Z" transform="translate(-3.2916 -3.3488)"/><path class="cls-14" d="M102.2347,460.5819q-.8352.2562-1.671.5109c-1.2628-1.9212-3.0247,1.63-4.2777-.392a14.0287,14.0287,0,0,1,9.3863-4.99c.9984.84,2.2449,1.5293,1.9221,3.17C105.7525,459.2736,103.343,457.8773,102.2347,460.5819Z" transform="translate(-3.2916 -3.3488)"/><path class="cls-15" d="M107.5944,458.8812c.3228-1.641-.9237-2.33-1.9221-3.17q1.6332-.28,3.2661-.56,1.3053,1.8144,2.6105,3.629-.0426.3054-.0933.61-.9389.0027-1.8776.0061Q108.5862,459.1394,107.5944,458.8812Z" transform="translate(-3.2916 -3.3488)"/><path class="cls-5" d="M118.1342,459.52c3.14-.8627,6.01,2.5631,9.2209.5835q.71.4647,1.4193.927C124.77,463.7564,121.5649,460.8416,118.1342,459.52Z" transform="translate(-3.2916 -3.3488)"/><path class="cls-14" d="M111.5489,458.78q-1.3053-1.8145-2.6105-3.629,1.9489.0843,3.898.1687l1.3266,3.5888Z" transform="translate(-3.2916 -3.3488)"/><path class="cls-5" d="M96.286,460.7008c1.253,2.022,3.0149-1.5292,4.2777.392-1.4922,1.4993-3.0692,2.3927-5.0073.6964Q95.92,461.2432,96.286,460.7008Z" transform="translate(-3.2916 -3.3488)"/><path class="cls-15" d="M61.119,464.791c-2.8815,1.7363-4.8136-.5963-7.0673-1.6233-3.1433-1.4322-6.3166-2.7985-9.4779-4.1926C51.3851,454.92,56.3764,456.6739,61.119,464.791Z" transform="translate(-3.2916 -3.3488)"/><path class="cls-5" d="M107.5944,458.8812q.9918.2577,1.9836.5147-3.671.5936-7.3427,1.1874C103.343,457.8773,105.7525,459.2736,107.5944,458.8812Z" transform="translate(-3.2916 -3.3488)"/><path class="cls-5" d="M111.5489,458.78l2.6141.1285q.3087.3041.6169.6077c-1.15,1.0807-2.2213.0723-3.3237-.1257Q111.506,459.0852,111.5489,458.78Z" transform="translate(-3.2916 -3.3488)"/><path class="cls-18" d="M110.85,470.741l1.3227.57a1.2313,1.2313,0,0,1-1.968.2213l.1168-.8045A3.8214,3.8214,0,0,0,110.85,470.741Z" transform="translate(-3.2916 -3.3488)"/><path class="cls-16" d="M110.3217,470.7281l-.1168.8045q-.6333.0025-1.2662.0043-.0372-.4073-.0749-.8162Q109.5922,470.7246,110.3217,470.7281Z" transform="translate(-3.2916 -3.3488)"/><path class="cls-15" d="M54.5012,234.0223q-.9806.2118-1.961.4233l-1.2946.3006L49.9144,235q-.6612.1539-1.3224.3081l-1.3009.2887q-.9708.2392-1.9416.4789-.6682.1489-1.3366.2977-1.2707.1849-2.5413.37l-2.0492.4565-1.9713.6784-2.435.35-1.5052.3087c-3.5831.2592-6.8557,2.7436-10.65,1.4865l-.4664-2.0913q-3.6179-15.4719-7.2356-30.9438.0228-2.8974.0449-5.7946c.405.44,1.0641.8218,1.1785,1.3273,2.4279,10.7295,4.8911,21.4531,7.0985,32.2289.4894,2.3894,1.2911,2.7523,3.4738,2.25,12.1382-2.7938,24.2685-5.6461,36.4817-8.0758,3.6865-.7334,4.6981-1.9075,3.8667-5.5872q-5.9841-26.4857-11.56-53.0627c-.6887-3.2884-2.1528-4.0567-5.0618-3.0682q-.4378-2.5245-.8758-5.0509c4.77-2.2942,6.504-.53,7.5631,4.4685,4.3975,20.7566,9.2375,41.42,13.9149,62.1168q-.1407.6644-.281,1.3286l-15.1848,3.6357Q55.1594,233.8637,54.5012,234.0223Z" transform="translate(-3.2916 -3.3488)"/><path class="cls-20" d="M35.0161,238.229l2.435-.35c-.0622,2.5659-2.1725,3.6468-3.9511,4.174-3.8685,1.1466-7.9148,1.6933-11.8892,2.4857a1.9158,1.9158,0,0,1-.537-.0835c-2.2865-10.2126-4.6095-20.4171-6.8255-30.6448a41.2,41.2,0,0,1-.4639-5.4946q.687-.6631,1.3743-1.3263,3.6175,15.4716,7.2353,30.9436c-.8121.9129-.5515,1.5866.4665,2.0913,3.7947,1.2571,7.0673-1.2273,10.65-1.4865Z" transform="translate(-3.2916 -3.3488)"/><path class="cls-21" d="M39.4224,237.2l2.0491-.4567a1.2216,1.2216,0,0,1-.1581.5021q-.934.2838-1.8679.567A3.6774,3.6774,0,0,1,39.4224,237.2Z" transform="translate(-3.2916 -3.3488)"/><path class="cls-14" d="M47.88,165.1375c.5589,2.2579-.9459,2.8229-2.6468,3.2122-8.7721,2.0076-17.5836,3.861-26.297,6.0969-3.0446.7813-2.3535-1.5368-3.1014-2.7478Z" transform="translate(-3.2916 -3.3488)"/><path class="cls-15" d="M45.059,157.68l1.006-.4728c-.0221.2294-.0452.4593-.0679.6889Q45.5284,157.7878,45.059,157.68Z" transform="translate(-3.2916 -3.3488)"/><path class="cls-6" d="M65.6726,173.536q.1018.4051.2049.8109Q65.7763,173.9419,65.6726,173.536Z" transform="translate(-3.2916 -3.3488)"/><path class="cls-18" d="M114.1778,471.3033c1.0766-.829,2.01-.8433,2.71.4743Q115.5333,471.5391,114.1778,471.3033Z" transform="translate(-3.2916 -3.3488)"/><path class="cls-11" d="M50.6812,167.2067c2.909-.9885,4.3731-.22,5.0618,3.0682q5.5657,26.5767,11.56,53.0627c.8314,3.68-.18,4.8538-3.8667,5.5872-12.2132,2.43-24.3435,5.282-36.4817,8.0758-2.1827.5024-2.9844.1395-3.4738-2.25-2.2074-10.7758-4.6706-21.4994-7.0985-32.2289-.1144-.5055-.7735-.8876-1.1785-1.3273q.0158-.98.03-1.9591a1.1519,1.1519,0,0,0-.0747-1.9549q-.3289-1.3168-.6579-2.6334c-1.2854-4.9406-.1652-10.69-4.8673-14.4821q-.26-1.2684-.52-2.5367c1.6962-.88,3.3985-1.737,5.41-1.3764,9.5074-.6,18.501-3.7353,27.7241-5.7212C45.16,169.9036,48.8369,170.7169,50.6812,167.2067ZM34.8485,178.8942l-.0039-.006c-3.1626-5.2406-7.6238-2.2921-11.687-1.8533l-1.4266.6982c-.706.1977-1.7562.1663-2.0642.629-2.7244,4.0933-5.5257,8.3465-2.2155,13.34,3.42,5.1594,8.45,7.1083,14.1942,4.8394,5.3339-2.1069,8.7177-6.0113,6.9218-12.4334C37.653,182.138,37.9568,179.2993,34.8485,178.8942Z" transform="translate(-3.2916 -3.3488)"/><path class="cls-15" d="M9.6336,180.165c4.7021,3.7924,3.5819,9.5415,4.8673,14.4821q-1.0895-.3756-2.179-.7516C12.3112,189.1448,9.0452,185.0322,9.6336,180.165Z" transform="translate(-3.2916 -3.3488)"/><path class="cls-15" d="M15.1588,197.2805a1.1519,1.1519,0,0,1,.0747,1.9549C14.3391,198.6171,14.3187,197.9653,15.1588,197.2805Z" transform="translate(-3.2916 -3.3488)"/><path class="cls-15" d="M14.5237,176.2519c-2.012-.3606-3.7143.496-5.41,1.3764-2.3935-4.5035-1.0616-6.9452,4.04-7.3Q13.8386,173.29,14.5237,176.2519Z" transform="translate(-3.2916 -3.3488)"/><path class="cls-2" d="M127.7479,198.7983q-.3015-.3867-.6036-.7731Q127.4457,198.4119,127.7479,198.7983Z" transform="translate(-3.2916 -3.3488)"/><path class="cls-19" d="M5.28,171.6644c-.8532-.7066-.27-1.1351.3008-1.5664Q5.4285,170.88,5.28,171.6644Z" transform="translate(-3.2916 -3.3488)"/><path class="cls-10" d="M45.35,236.076q.9708-.24,1.9416-.4789C46.8884,236.7485,46.23,236.8642,45.35,236.076Z" transform="translate(-3.2916 -3.3488)"/><path class="cls-10" d="M41.3134,237.2458a1.2216,1.2216,0,0,0,.1581-.5021l2.5414-.37C43.4358,237.664,42.2868,237.1828,41.3134,237.2458Z" transform="translate(-3.2916 -3.3488)"/><path class="cls-10" d="M71.0024,230.07q.14-.6642.281-1.3286C72.5478,229.4715,72.0143,229.8213,71.0024,230.07Z" transform="translate(-3.2916 -3.3488)"/><path class="cls-10" d="M48.592,235.3084q.6612-.154,1.3224-.308C49.6421,235.8271,49.25,236.1385,48.592,235.3084Z" transform="translate(-3.2916 -3.3488)"/><path class="cls-10" d="M51.2456,234.7462l1.2946-.3006C52.2544,235.1741,51.8723,235.487,51.2456,234.7462Z" transform="translate(-3.2916 -3.3488)"/><path class="cls-10" d="M54.5012,234.0223q.6582-.1586,1.3164-.3169C55.5448,234.5013,55.16,234.83,54.5012,234.0223Z" transform="translate(-3.2916 -3.3488)"/><path class="cls-22" d="M120.7308,323.1826q-.3268.6586-.6538,1.3171-.8344.9832-1.668,1.9668l-.2811.0533q-4.3143-.3291-8.6282-.6571a10.0048,10.0048,0,0,1-1.3051-.0717,18.3479,18.3479,0,0,0-9.1259.6893c2.3155,2.6118,5.1612.7471,7.7635.893a18.6977,18.6977,0,0,0,2.7582-.2385l6.6891.6309c-2.636,5.92-14.0194,6.4515-19.346.9413a32.4448,32.4448,0,0,0-2.93-2.4151c-2.85-7.4259-2.9321-14.527,2.458-20.9863q.2836-.2519.5675-.5056l.07-.0669q.2859-.2931.5718-.5871,2.019-1.0835,4.0384-2.1686c7.0656-1.3392,13.0749.384,17.704,6.1071q.3128.34.6255.6793C120.8125,313.544,122.4836,318.2811,120.7308,323.1826Zm-11.8208,0a1.7585,1.7585,0,0,0,.0317-.61l.0684-4.627,1.7373.0269a.9871.9871,0,0,1,.2.5046c-.1441,1.3931-1.656,2.9646.5286,4.0542l.0529.0343,1.8687.4136,1.4988-.03,1.2321-.4732c1.1072-3.0121.5258-5.8987-.6489-8.7414l-.6024-.1773-2.0993-.0293a.3925.3925,0,0,0-.5742.1017q-.531.244-1.0635.4879c-.778.142-1.5922.3562-1.6929-.85l.7469-1.2438c2.8721-.4916,3.0519-2.9911,3.6663-5.0891.0908-.31-.7467-1.2963-1.0588-1.2545a6.2589,6.2589,0,0,0-4.5493,3.1439l-1.2519-.0342c-1.18-1.5393-2.7375-3.6765-4.5176-2.6475-1.4489.8376-.1353,2.8615,1.1734,3.9838l1.3265,1.8666.724.7056-.6217,1.1128-1.9991-.1654c-.455-.8371-.9148-1.1314-1.3868-.012-1.37,2.34-.4238,4.8911-.6518,7.3353-.0812.8706-.0135,1.8875,1.1945,1.9256,1.4331.0451,1.2557-1.1151,1.4269-2.0771.2982-1.6759-1.0224-3.8058,1.3187-4.9333l1.6233.11-.1292,1.9643-.0975.7132.4788,4.051a1.5607,1.5607,0,0,0,.075.4475A1.1808,1.1808,0,0,0,108.91,323.183Zm-12.6254-6.146c1.355,1.7162-.93,6.1354,1.4741,5.496,3.3452-.89.8237-5.41,1.3628-8.3017.2-1.07.6122-3.474-1.0755-3.0888C94.7756,311.8889,97.4284,315.0049,96.2846,317.037Z" transform="translate(-3.2916 -3.3488)"/><path class="cls-15" d="M97.6707,304.146q-.2859.2937-.5718.5871Q97.3849,304.4391,97.6707,304.146Z" transform="translate(-3.2916 -3.3488)"/><path class="cls-15" d="M97.0285,304.8q-.2838.2534-.5675.5056Q96.745,305.0518,97.0285,304.8Z" transform="translate(-3.2916 -3.3488)"/><path class="cls-11" d="M80.024,116.2835c-1.4888-.0977-2.3669-.087-3.2215-.2235-3.3767-.5394-7.1327-1.2588-8.0533-4.7936-.2173-.8344,4.54.2068,7.02.1483a67.8042,67.8042,0,0,0,15.1952-1.6572,9.9576,9.9576,0,0,1,1.8275-.1253c-.2789.4282-.5731.8474-.8345,1.2861C89.07,115.763,84.0914,115.6368,80.024,116.2835Z" transform="translate(-3.2916 -3.3488)"/><path class="cls-10" d="M38.6245,64.288l-.52,1.2013q-.6375-.3-1.2744-.6Q37.7277,64.5888,38.6245,64.288Z" transform="translate(-3.2916 -3.3488)"/><path class="cls-6" d="M64.5965,77.7625c1.9744,1.5265.5634,3.7494,1.1442,5.5631l-.002-.1184q-.3535.6906-.707,1.38l.0192-.0747q-.3563.3507-.7129.7007l.0455-.0469q-.3277.4073-.6556.814l-.5885.5354-2.7575.0174-2.64.0243a1.4623,1.4623,0,0,0-.605-.0545c-3.8157-1.1561-5.0418-4.1042-4.5011-7.5918.7335-4.7308,4.4795-5.5911,8.5411-5.6583q.3123.5734.6254,1.1468-.4988.598-.9993,1.1947c-3.2212-.71-5.836-.09-6.2453,3.6657a3.6862,3.6862,0,0,0,3.92,4.2643c2.9711-.0114,4.58-1.7832,3.9056-4.9963Z" transform="translate(-3.2916 -3.3488)"/><path class="cls-3" d="M57.7419,86.5577q1.32-.0122,2.64-.0249.0231.66.0461,1.3222-.337.3457-.674.6914a10.8671,10.8671,0,0,1-6.5521-2.11c-4.1292-3.192-2.6012-7.68-2.7019-11.7947l.0181-.0238q.4975.1159.9953.2316l.96-1.54c2.8808-3.1129,5.7858-2.4778,8.703-.0565-4.061.0669-7.807.9272-8.54,5.658-.5407,3.4876.6854,6.4357,4.5007,7.5916Q57.4389,86.53,57.7419,86.5577Z" transform="translate(-3.2916 -3.3488)"/><path class="cls-14" d="M50.5,74.6421c.1007,4.1148-1.4273,8.6027,2.7019,11.7947q-.4531.4659-.9071.9327-2.1772-1.1087-4.3532-2.2194-.3984-2.6283-.797-5.2563C48.4239,78.246,47.85,75.4144,50.5,74.6421Z" transform="translate(-3.2916 -3.3488)"/><path class="cls-5" d="M52.4733,73.31q-.48.77-.9609,1.54-.4975-.4268-.9927-.8535Z" transform="translate(-3.2916 -3.3488)"/><path class="cls-14" d="M50.52,73.9964q.4958.4268.9927.8535l-.9942-.2316a1.99,1.99,0,0,1-.1641-.4169C50.3444,74.144,50.4607,74.0654,50.52,73.9964Z" transform="translate(-3.2916 -3.3488)"/><path class="cls-3" d="M101.7167,86.4985q-.0761-.3875-.151-.7743c.6567-2.493,4.081-4.3568,1.7159-7.5375.7967-2.1507.3513-3.4961-2.2378-3.4518-2.21-2.12-4.649-1.4312-7.1018-.5819q-.1189-.147-.237-.2949c3.1364-3.389,6.548-2.5021,10.0213-.645q.6381.3843,1.2778.7682l.01.0054q.2593,1.0035.519,2.0074C107.0633,80.5137,105.6649,83.9692,101.7167,86.4985Z" transform="translate(-3.2916 -3.3488)"/><path class="cls-21" d="M105.5331,75.9941q-.26-1.0038-.519-2.0074a1.7078,1.7078,0,0,1,1.8423,2.04Z" transform="translate(-3.2916 -3.3488)"/><path class="cls-3" d="M91.2079,75.9712c.1184-1.5492,1.2082-1.9488,2.4978-2.1122.078.0977.157.196.2356.293q-1.2393,1.03-2.4772,2.0625Q91.3348,76.0941,91.2079,75.9712Z" transform="translate(-3.2916 -3.3488)"/><path class="cls-21" d="M105.0041,73.9813q-.6393-.384-1.2778-.7682Q104.3659,73.5971,105.0041,73.9813Z" transform="translate(-3.2916 -3.3488)"/><path class="cls-4" d="M60.4281,87.855q-.023-.6615-.0461-1.3222,1.3788-.0078,2.7574-.0168Z" transform="translate(-3.2916 -3.3488)"/><path class="cls-4" d="M65.0317,84.5875q.3534-.69.707-1.38Z" transform="translate(-3.2916 -3.3488)"/><path class="cls-4" d="M63.7279,85.9806q.3279-.4068.6556-.814Q64.0555,85.5734,63.7279,85.9806Z" transform="translate(-3.2916 -3.3488)"/><path class="cls-4" d="M64.338,85.2135q.3565-.35.7129-.7007Q64.6942,84.8628,64.338,85.2135Z" transform="translate(-3.2916 -3.3488)"/><path class="cls-6" d="M91.4641,76.2145q1.2382-1.0317,2.4772-2.0625c2.4535-.8483,4.893-1.5368,7.1022.5829q-.6054.3582-1.21.7165c-3.21-.5378-6.4608-.6033-7.1875,3.4215-.5006,2.7729,1.8568,4.0919,4.2241,4.3393,3.4171.3571,3.8239-2.0772,3.6416-4.7415l2.77-.284c2.3651,3.1807-1.0592,5.0445-1.7159,7.5375-4.7915,1.9869-8.3409.4785-10.8833-3.8636Q91.0744,79.0376,91.4641,76.2145Z" transform="translate(-3.2916 -3.3488)"/><path class="cls-12" d="M62.3837,78.5283c.6745,3.2131-.9345,4.9849-3.9056,4.9963a3.6862,3.6862,0,0,1-3.92-4.2643c.4093-3.7552,3.0241-4.3752,6.2453-3.6657C60.9875,76.7581,60.88,78.0775,62.3837,78.5283Z" transform="translate(-3.2916 -3.3488)"/><path class="cls-18" d="M116.28,327.7657q-3.3445-.3154-6.6892-.6311-.0455-.6361-.0906-1.2719,4.314.3282,8.6282.6571Q117.2039,327.1434,116.28,327.7657Z" transform="translate(-3.2916 -3.3488)"/><path class="cls-21" d="M22.8605,240.0242c-1.018-.5047-1.2786-1.1784-.4665-2.0913Z" transform="translate(-3.2916 -3.3488)"/><path class="cls-21" d="M35.0161,238.229l-1.5052.3087Z" transform="translate(-3.2916 -3.3488)"/><path class="cls-18" d="M38.5646,184.1067c1.7986,6.4234-1.5852,10.3278-6.9191,12.4347-5.7442,2.2689-10.774.32-14.1942-4.8394-3.31-4.9934-.5089-9.2466,2.2155-13.34.308-.4627,1.3582-.4313,2.0641-.63-1.0429,1.2968-3.7064,2.62-.8265,4.2619,3.2958,1.8784,6.4212,7.9068,10.8757,1.2186.4694-.7047,1.9632-.7271,2.9817-1.0661Zm-9.5264,5.2269-.0294-.0572c-.5714-1.6655-1.3657-.8238-2.1415-.19l-.6812.2474-.6087.6641-.2473,1.22-.8135,1.9384c-1.7317.0055-3.1371-.4537-3.4719-2.4376l2.0785-1.3021c-.2914-.2066-.59-.5983-.873-.5879-1.2513.0461-1.1327,1.05-1.1933,1.9019-2.1108.6285-2.1366-3.4507-2.9617-2.2053-1.0533,1.59,1.1135,3.4823,2.6122,4.7341a10.4908,10.4908,0,0,0,15.6937-2.0981c.6369-.9977.6067-2.4211.8843-3.6481-.6709.7568-1.3721,1.4891-2.0063,2.2755-1.1886,1.474-2.4558,2.7888-4.5393,2.79-.04-.98.3681-2.1294-.9881-2.6113l-.087-.0556Zm-8.0229-1.0784a8.0108,8.0108,0,0,0,.9991-1.6323c.0608-.2148-.3216-.5551-.5032-.8386a4.8167,4.8167,0,0,0-.957,1.0926C20.45,187.1055,20.7517,187.52,21.0153,188.2552Z" transform="translate(-3.2916 -3.3488)"/><path class="cls-22" d="M34.7618,182.1468c-1.0185.339-2.5123.3614-2.9817,1.0661-4.4545,6.6882-7.58.66-10.8757-1.2186-2.88-1.6414-.2164-2.9651.8265-4.2619q.7134-.3482,1.4255-.6975c4.05-.3609,8.0413-.3384,11.6882,1.8533l.0039.0061.7424,1.9142-.1239.735Z" transform="translate(-3.2916 -3.3488)"/><path class="cls-17" d="M34.8446,178.8882c-3.6469-2.1917-7.6378-2.2142-11.6882-1.8533C27.2208,176.5961,31.682,173.6476,34.8446,178.8882Z" transform="translate(-3.2916 -3.3488)"/><path class="cls-17" d="M34.7618,182.1468l.7053-.6033q.0621-.3673.1238-.735l-.7424-1.9142c3.1083.405,2.8045,3.2437,3.7174,5.213Z" transform="translate(-3.2916 -3.3488)"/><path class="cls-23" d="M114.8964,322.9494q-.7494.0153-1.4981.0294-.9341-.2074-1.8694-.4125l-.0527-.0343c1.3941-1.5563,3.87-3.2539-.5288-4.0542a.99.99,0,0,0-.2-.5048q.1971-1.9275.3939-3.8549.5312-.2442,1.0621-.4875l.3048.0483.27-.1507q1.05.0145,2.0989.03.3011.0889.6028.1767c1.1747,2.8427,1.7561,5.7293.6488,8.7416Q115.5124,322.7131,114.8964,322.9494Z" transform="translate(-3.2916 -3.3488)"/><path class="cls-23" d="M96.2846,317.037c1.1438-2.0321-1.509-5.1481,1.7614-5.8945,1.6877-.3852,1.275,2.0189,1.0755,3.0888-.5391,2.8921,1.9824,7.4119-1.3628,8.3017C95.3551,323.1724,97.64,318.7532,96.2846,317.037Z" transform="translate(-3.2916 -3.3488)"/><path class="cls-23" d="M104.9875,315.8841c-2.3411,1.1276-1.02,3.2575-1.3187,4.9334-.1712.962.0062,2.1222-1.4269,2.0771-1.208-.0381-1.2757-1.055-1.1945-1.9256.228-2.4442-.7177-4.9954.651-7.3341q.693.0066,1.3876.0108l1.9981.1654Q105.0347,314.8478,104.9875,315.8841Z" transform="translate(-3.2916 -3.3488)"/><path class="cls-2" d="M104.9875,315.8841q.0479-1.0363.0966-2.073.3124-.5564.6221-1.1129-.3623-.3528-.7234-.7055-.6633-.9333-1.3264-1.8673c1.166-.3173,3.0969,1.2825,3.3441-1.3356q.626.0171,1.252.0336.971,1.5995,1.9417,3.2-.3735.6219-.7457,1.2443-.6117.3144-1.2255.6276c-1.32.0981-1.403,1.1469-1.6122,2.0986Z" transform="translate(-3.2916 -3.3488)"/><path class="cls-18" d="M110.1942,312.0237q-.9708-1.6005-1.9417-3.2a6.2594,6.2594,0,0,1,4.5492-3.1433c.3121-.0418,1.15.9444,1.0588,1.2545C113.2461,309.0326,113.0663,311.5321,110.1942,312.0237Z" transform="translate(-3.2916 -3.3488)"/><path class="cls-17" d="M109.5,325.8626q.0453.636.0906,1.272a18.6685,18.6685,0,0,1-2.7581.2387c-2.6023-.1459-5.448,1.7188-7.7635-.893a18.3479,18.3479,0,0,1,9.1259-.6893A9.9874,9.9874,0,0,0,109.5,325.8626Z" transform="translate(-3.2916 -3.3488)"/><path class="cls-23" d="M106.6108,315.9942c.2092-.9517.2918-2,1.6128-2.0985q.3937,2.0253.7865,4.0506-.0342,2.3136-.0685,4.6269-1.04.0746-2.0787.1495-.2394-2.0254-.4791-4.0511c.0618-.068.1754-.1355.176-.2039a2.8971,2.8971,0,0,0-.0782-.5092Z" transform="translate(-3.2916 -3.3488)"/><path class="cls-18" d="M107.0005,308.79c-.2472,2.6181-2.1781,1.0183-3.3441,1.3356-1.3088-1.1216-2.6224-3.1455-1.1735-3.9831C104.263,305.1133,105.82,307.2505,107.0005,308.79Z" transform="translate(-3.2916 -3.3488)"/><path class="cls-18" d="M110.9474,318.4778c4.399.8,1.9229,2.4979.5288,4.0542C109.2914,321.4424,110.8033,319.8709,110.9474,318.4778Z" transform="translate(-3.2916 -3.3488)"/><path class="cls-18" d="M109.01,317.9463q-.393-2.0253-.7865-4.0506.6124-.3136,1.2248-.6277c.1,1.206.9138.9918,1.6925.85q-.1959,1.9277-.3933,3.8551Q109.8787,317.96,109.01,317.9463Z" transform="translate(-3.2916 -3.3488)"/><path class="cls-2" d="M103.086,313.6457q-.6942-.0048-1.3876-.0108C102.1712,312.5143,102.631,312.8086,103.086,313.6457Z" transform="translate(-3.2916 -3.3488)"/><path class="cls-18" d="M106.8629,322.7227q1.0394-.0748,2.0787-.1495a1.7582,1.7582,0,0,1-.0315.61l-1.9722-.0127A1.5607,1.5607,0,0,1,106.8629,322.7227Z" transform="translate(-3.2916 -3.3488)"/><path class="cls-18" d="M111.5289,322.5663q.9351.2056,1.8694.4125Q112.4629,322.7736,111.5289,322.5663Z" transform="translate(-3.2916 -3.3488)"/><path class="cls-2" d="M106.9379,323.17l1.9722.0127A1.1809,1.1809,0,0,1,106.9379,323.17Z" transform="translate(-3.2916 -3.3488)"/><path class="cls-18" d="M114.8964,322.9494q.6159-.2364,1.232-.473Q115.5125,322.7126,114.8964,322.9494Z" transform="translate(-3.2916 -3.3488)"/><path class="cls-18" d="M104.9828,311.9927q.3615.3528.7234.7055Q105.3452,312.3456,104.9828,311.9927Z" transform="translate(-3.2916 -3.3488)"/><path class="cls-18" d="M112.7779,313.5282l-.27.1507-.3048-.0483A.3923.3923,0,0,1,112.7779,313.5282Z" transform="translate(-3.2916 -3.3488)"/><path class="cls-2" d="M106.4816,317.9585a2.8971,2.8971,0,0,1,.0782.5092c-.0006.0684-.1142.1359-.176.2039Q106.433,318.3152,106.4816,317.9585Z" transform="translate(-3.2916 -3.3488)"/><path class="cls-18" d="M115.48,313.7348q-.3017-.0881-.6028-.1767Q115.1786,313.6459,115.48,313.7348Z" transform="translate(-3.2916 -3.3488)"/><path class="cls-4" d="M57.7419,86.5577q-.3029-.0275-.6054-.0547A1.467,1.467,0,0,1,57.7419,86.5577Z" transform="translate(-3.2916 -3.3488)"/><path class="cls-15" d="M103.2816,78.1867q-1.3851.1421-2.77.2843-.3392-1.51-.6783-3.02.6051-.3582,1.21-.7165C103.6329,74.6906,104.0783,76.036,103.2816,78.1867Z" transform="translate(-3.2916 -3.3488)"/><path class="cls-12" d="M99.8332,75.4514q.3391,1.51.6783,3.02c.1822,2.664-.2246,5.0983-3.6417,4.7412-2.3673-.2474-4.7247-1.5664-4.2241-4.3393C93.3724,74.8481,96.6233,74.9136,99.8332,75.4514Z" transform="translate(-3.2916 -3.3488)"/><path class="cls-22" d="M21.0446,190.7179c.3349,1.984,1.74,2.4432,3.4708,2.4391q1.2123-.2235,2.4268-.45l1.324.0415c.892.9194,1.6784.3249,2.4715-.1725,2.0856,0,3.3528-1.3143,4.5414-2.7883.6342-.7864,1.3354-1.5187,2.0063-2.2755-.2776,1.227-.2474,2.65-.8843,3.6481a10.4908,10.4908,0,0,1-15.6937,2.0981c-1.4987-1.2518-3.6655-3.1444-2.6122-4.7341.8251-1.2454.8509,2.8338,2.9617,2.2053Z" transform="translate(-3.2916 -3.3488)"/><path class="cls-23" d="M28.2662,192.7488l-1.3239-.0416-1.6122-1.49q.1236-.61.2476-1.2192.3045-.3318.6084-.6645c.2271-.0825.4541-.165.6808-.2456q1.0707.096,2.1419.1885l.0288.0576q.3129.2891.6271.5771l.0859.056Q29.0072,191.3584,28.2662,192.7488Z" transform="translate(-3.2916 -3.3488)"/><path class="cls-21" d="M28.2662,192.7488q.7416-1.3906,1.4844-2.7817c1.3573.4815.95,1.6308.9882,2.61C29.9446,193.0737,29.1582,193.6682,28.2662,192.7488Z" transform="translate(-3.2916 -3.3488)"/><path class="cls-22" d="M21.0569,190.73c.0606-.8522-.058-1.8558,1.1933-1.9019.2834-.01.5816.3813.873.5879l-2.0785,1.3021Z" transform="translate(-3.2916 -3.3488)"/><path class="cls-22" d="M21.0153,188.2552c-.2636-.7349-.5657-1.15-.4611-1.3783a4.8167,4.8167,0,0,1,.957-1.0926c.1816.2835.564.6238.5032.8386A8.0108,8.0108,0,0,1,21.0153,188.2552Z" transform="translate(-3.2916 -3.3488)"/><path class="cls-21" d="M25.33,191.2172l1.6122,1.49q-1.2141.2256-2.4269.45Q24.9239,192.1857,25.33,191.2172Z" transform="translate(-3.2916 -3.3488)"/><path class="cls-21" d="M29.0088,189.2764q-1.0712-.0933-2.1419-.1885C27.6431,188.4526,28.4374,187.6109,29.0088,189.2764Z" transform="translate(-3.2916 -3.3488)"/><path class="cls-21" d="M29.6647,189.9111q-.3139-.2883-.6271-.5771Q29.3517,189.6222,29.6647,189.9111Z" transform="translate(-3.2916 -3.3488)"/><path class="cls-21" d="M26.1861,189.3335q-.3041.3326-.6084.6645Q25.8816,189.6655,26.1861,189.3335Z" transform="translate(-3.2916 -3.3488)"/><path class="cls-18" d="M35.5909,180.8085q-.0618.3676-.1238.735Q35.5289,181.176,35.5909,180.8085Z" transform="translate(-3.2916 -3.3488)"/></g></svg>